<svg width="968" height="250" viewBox="0 0 968 250" fill="none" xmlns="http://www.w3.org/2000/svg">
<path d="M0.967773 53.4639C5.28027 54.542 9.39062 55.3506 13.2988 55.8896C17.207 56.4287 20.6436 56.833 23.6084 57.1025C27.1123 57.5068 30.3467 57.6416 33.3115 57.5068C37.085 57.5068 41.8018 57.1699 47.4619 56.4961C53.2568 55.8223 59.1865 55.2158 65.251 54.6768C71.3154 54.0029 77.1104 53.5986 82.6357 53.4639C88.2959 53.1943 92.8779 53.5313 96.3818 54.4746C99.8857 55.2832 103.457 56.5635 107.096 58.3154C110.869 59.9326 114.306 62.0215 117.405 64.582C120.505 67.0078 123.065 69.9053 125.087 73.2744C127.108 76.5088 128.254 80.2148 128.523 84.3926C128.389 89.6484 127.176 94.5674 124.885 99.1494C122.998 103.058 119.831 107.101 115.384 111.278C110.937 115.321 104.535 118.421 96.1797 120.577C100.357 121.116 103.929 122.06 106.894 123.407C109.993 124.62 112.621 126.103 114.777 127.854C117.068 129.472 118.888 131.291 120.235 133.312C121.718 135.334 122.863 137.355 123.672 139.377C125.693 144.094 126.637 149.35 126.502 155.145C125.693 162.691 124.144 168.688 121.853 173.136C119.696 177.583 117.203 181.02 114.373 183.445C111.543 185.871 108.646 187.556 105.681 188.499C102.716 189.442 100.021 190.184 97.5947 190.723C95.1689 191.262 92.2041 191.531 88.7002 191.531C85.1963 191.531 81.4229 191.464 77.3799 191.329C73.4717 191.06 69.4287 190.857 65.251 190.723C61.0732 190.453 57.0977 190.453 53.3242 190.723C50.2246 190.992 46.4512 191.262 42.0039 191.531C38.2305 191.801 33.5137 192.138 27.8535 192.542C22.1934 192.812 15.5898 193.148 8.04297 193.553C9.52539 192.475 10.7383 191.262 11.6816 189.914C12.7598 188.432 13.6357 187.151 14.3096 186.073C14.9834 184.726 15.5898 183.445 16.1289 182.232C16.5332 181.154 16.8701 178.189 17.1396 173.338C17.4092 168.486 17.6113 162.691 17.7461 155.953C17.8809 149.08 17.9482 141.735 17.9482 133.919C18.083 125.968 18.0156 118.354 17.7461 111.076C17.6113 103.664 17.3418 97.1279 16.9375 91.4678C16.668 85.6729 16.2637 81.4951 15.7246 78.9346C14.916 76.1045 13.8379 73.207 12.4902 70.2422C11.4121 67.6816 9.8623 64.9189 7.84082 61.9541C5.9541 58.9893 3.66309 56.1592 0.967773 53.4639ZM43.6211 74.083C43.6211 74.6221 43.6885 76.4414 43.8232 79.541C43.958 82.2363 44.0928 86.4141 44.2275 92.0742C44.4971 97.5996 44.834 105.483 45.2383 115.726C48.6074 117.208 51.9092 118.017 55.1436 118.151C58.3779 118.151 61.2754 118.017 63.8359 117.747C66.8008 117.343 69.6309 116.669 72.3262 115.726C75.9648 114.243 78.7949 111.817 80.8164 108.448C82.9727 105.079 84.3877 101.575 85.0615 97.9365C85.8701 94.1631 86.0723 90.6592 85.668 87.4248C85.2637 84.0557 84.3877 81.6299 83.04 80.1475C80.4795 77.8564 77.3125 75.9697 73.5391 74.4873C70.3047 73.2744 66.1943 72.4658 61.208 72.0615C56.3564 71.5225 50.4941 72.1963 43.6211 74.083ZM42.6104 169.901C47.5967 172.462 51.9766 174.146 55.75 174.955C59.5234 175.764 62.6904 176.168 65.251 176.168C68.2158 176.168 70.7764 175.764 72.9326 174.955C75.4932 173.742 77.9863 172.125 80.4121 170.104C82.9727 167.947 84.8594 165.454 86.0723 162.624C87.4199 159.659 87.959 156.425 87.6895 152.921C87.4199 149.282 85.8701 145.307 83.04 140.994C80.4795 137.895 77.3799 135.469 73.7412 133.717C70.5068 132.234 66.3965 131.291 61.4102 130.887C56.5586 130.482 50.5615 131.628 43.4189 134.323L42.6104 169.901ZM190.381 165.454C194.154 165.454 197.658 165.05 200.893 164.241C203.588 163.567 206.148 162.489 208.574 161.007C211.135 159.39 212.819 157.031 213.628 153.932C216.323 154.471 218.614 154.942 220.501 155.347C222.388 155.616 224.005 155.886 225.353 156.155C226.835 156.56 228.115 156.829 229.193 156.964C230.271 157.233 231.552 157.503 233.034 157.772C234.382 158.042 235.999 158.379 237.886 158.783C239.907 159.053 242.266 159.457 244.961 159.996C242.939 159.727 240.851 159.929 238.694 160.603C236.673 161.276 234.719 162.018 232.832 162.826C230.676 163.77 228.654 164.915 226.768 166.263C225.555 167.071 224.14 168.284 222.522 169.901C221.04 171.519 218.884 173.068 216.054 174.551C213.224 176.033 209.45 177.313 204.733 178.392C200.151 179.335 194.222 179.672 186.944 179.402C178.185 179.133 170.84 177.583 164.91 174.753C158.98 171.788 154.196 168.217 150.558 164.039C146.919 159.727 144.291 155.077 142.674 150.091C141.057 145.104 140.181 140.455 140.046 136.143C139.911 131.83 141.191 127.315 143.887 122.599C146.582 117.882 150.355 113.569 155.207 109.661C160.193 105.753 166.19 102.586 173.198 100.16C180.206 97.5996 187.888 96.3193 196.243 96.3193C201.095 96.3193 205.542 96.9258 209.585 98.1387C213.763 99.2168 217.536 100.699 220.905 102.586C224.409 104.473 227.441 106.629 230.002 109.055C232.562 111.346 234.719 113.704 236.471 116.13C238.223 118.69 239.705 121.386 240.918 124.216C241.996 126.642 242.872 129.404 243.546 132.504C244.22 135.604 244.422 138.771 244.152 142.005C233.91 142.274 225.622 142.477 219.288 142.611C213.089 142.746 208.237 142.813 204.733 142.813H195.637H188.764C186.338 142.813 183.171 142.881 179.263 143.016C175.354 143.15 170.57 143.353 164.91 143.622C165.584 149.013 167.269 153.19 169.964 156.155C172.794 158.985 175.759 161.142 178.858 162.624C182.362 164.241 186.203 165.185 190.381 165.454ZM172.188 129.067C176.5 129.337 180.071 129.539 182.901 129.674C185.866 129.809 188.292 129.943 190.179 130.078C192.2 130.213 193.817 130.28 195.03 130.28H200.084C203.453 130.28 209.72 130.078 218.884 129.674C218.479 123.744 217.199 119.229 215.043 116.13C213.021 113.03 210.865 110.739 208.574 109.257C205.879 107.64 202.914 106.696 199.68 106.427C190.92 106.562 184.384 108.381 180.071 111.885C175.894 115.389 173.266 121.116 172.188 129.067ZM341.386 82.5732C340.173 85.5381 339.095 88.2334 338.151 90.6592C337.343 93.085 336.602 95.2412 335.928 97.1279C335.254 99.2842 334.647 101.171 334.108 102.788C333.569 104.675 332.963 106.831 332.289 109.257C331.615 111.413 330.739 114.108 329.661 117.343C328.718 120.442 327.572 124.148 326.225 128.461C325.146 121.992 323.192 116.871 320.362 113.098C317.532 109.189 314.635 106.157 311.67 104.001C308.166 101.575 304.393 99.8232 300.35 98.7451C293.072 97.5322 287.816 97.667 284.582 99.1494C281.348 100.632 279.191 102.519 278.113 104.81C277.574 105.753 276.968 106.966 276.294 108.448C275.755 109.796 275.283 111.211 274.879 112.693C274.609 114.176 274.542 115.658 274.677 117.141C274.812 118.623 275.418 119.836 276.496 120.779C277.17 121.453 278.922 122.396 281.752 123.609C284.582 124.688 287.951 125.968 291.859 127.45C295.902 128.798 300.147 130.28 304.595 131.897C309.177 133.515 313.489 135.132 317.532 136.749C321.575 138.366 325.079 139.983 328.044 141.601C331.009 143.218 332.963 144.7 333.906 146.048C334.715 147.396 335.591 149.215 336.534 151.506C337.612 153.662 338.354 156.088 338.758 158.783C339.297 161.344 339.432 164.039 339.162 166.869C339.027 169.564 338.286 172.26 336.938 174.955C335.591 177.65 333.435 180.144 330.47 182.435C327.64 184.726 323.799 186.612 318.947 188.095C313.287 189.847 307.829 190.318 302.573 189.51C297.317 188.701 292.466 187.488 288.019 185.871C283.706 184.254 279.933 182.704 276.698 181.222C273.464 179.604 271.173 178.931 269.825 179.2C268.343 179.47 266.658 180.211 264.771 181.424C262.885 182.637 261.065 183.917 259.313 185.265C257.696 186.478 256.281 187.623 255.068 188.701C253.855 189.645 253.249 189.981 253.249 189.712C253.249 189.442 253.451 188.634 253.855 187.286C254.395 185.938 254.934 184.321 255.473 182.435C256.146 180.413 256.753 178.257 257.292 175.966C257.966 173.54 258.438 171.249 258.707 169.093C258.977 167.341 259.313 165.185 259.718 162.624C259.987 160.333 260.324 157.57 260.729 154.336C261.268 150.967 261.874 146.924 262.548 142.207C263.222 145.711 264.165 148.743 265.378 151.304C266.726 153.864 268.006 156.088 269.219 157.975C270.701 160.131 272.116 161.95 273.464 163.433C275.485 165.319 277.844 167.071 280.539 168.688C283.369 170.306 286.199 171.721 289.029 172.934C291.859 174.012 294.555 174.686 297.115 174.955C299.676 175.225 301.832 174.955 303.584 174.146C305.336 173.338 306.818 171.855 308.031 169.699C309.379 167.543 310.322 165.185 310.861 162.624C311.4 160.063 311.603 157.638 311.468 155.347C311.333 152.921 310.727 150.967 309.648 149.484C308.84 148.541 306.953 147.328 303.988 145.846C301.158 144.363 297.722 142.746 293.679 140.994C289.771 139.242 285.593 137.423 281.146 135.536C276.833 133.649 272.723 131.763 268.814 129.876C265.041 127.854 261.874 125.968 259.313 124.216C256.888 122.329 255.54 120.645 255.271 119.162C255.001 117.006 254.799 114.647 254.664 112.087C254.529 109.392 254.664 106.764 255.068 104.203C255.607 101.508 256.551 98.9473 257.898 96.5215C259.381 94.0957 261.537 92.0742 264.367 90.457C266.254 89.3789 268.747 88.5703 271.847 88.0312C274.946 87.4922 278.383 87.2227 282.156 87.2227C285.93 87.0879 289.838 87.2227 293.881 87.627C297.924 87.8965 301.765 88.3008 305.403 88.8398C309.177 89.2441 312.546 89.7832 315.511 90.457C318.61 91.1309 320.969 91.7373 322.586 92.2764C324.473 92.9502 326.494 93.0176 328.65 92.4785C330.537 92.0742 332.559 91.1982 334.715 89.8506C336.871 88.5029 339.095 86.0771 341.386 82.5732Z" fill="#D12727"/>
<path d="M369.606 70.6465C373.649 71.0508 377.019 71.3877 379.714 71.6572C382.544 71.9268 384.835 72.1289 386.587 72.2637C388.608 72.3984 390.226 72.4658 391.438 72.4658C392.651 72.6006 394.269 72.6006 396.29 72.4658C398.042 72.3311 400.333 72.1963 403.163 72.0615C405.993 71.792 409.564 71.3877 413.877 70.8486C412.934 72.1963 412.192 73.4092 411.653 74.4873C411.114 75.4307 410.643 76.3066 410.238 77.1152L409.025 79.541C408.756 80.3496 408.486 81.1582 408.217 81.9668C407.947 82.6406 407.678 83.4492 407.408 84.3926C407.273 85.3359 407.139 86.3467 407.004 87.4248H438.135L435.305 103.799L406.802 102.182C406.128 109.055 405.656 114.378 405.387 118.151C405.117 121.925 404.848 124.688 404.578 126.439L404.174 130.078C403.77 135.199 403.365 140.792 402.961 146.856C402.557 152.786 402.422 158.312 402.557 163.433C402.691 168.554 403.163 172.866 403.972 176.37C404.78 179.739 406.195 181.424 408.217 181.424C410.238 181.424 412.125 180.885 413.877 179.807C415.629 178.729 417.111 177.448 418.324 175.966C419.672 174.483 420.683 173.001 421.356 171.519C422.03 169.901 422.367 168.688 422.367 167.88C422.367 167.071 422.165 166.128 421.761 165.05C421.087 163.028 419.874 160.468 418.122 157.368C422.03 158.312 425.467 159.255 428.432 160.198C429.914 160.737 431.262 161.276 432.475 161.815C433.822 162.354 435.372 162.961 437.124 163.635C438.606 164.309 440.493 165.117 442.784 166.061C445.075 167.004 447.771 168.149 450.87 169.497C447.905 170.036 445.749 170.912 444.401 172.125C443.593 172.664 442.986 173.271 442.582 173.944C441.639 175.427 440.561 177.448 439.348 180.009C438.135 182.435 436.315 184.86 433.89 187.286C431.464 189.712 428.162 191.868 423.984 193.755C419.941 195.642 414.483 196.72 407.61 196.989C400.468 197.259 395.01 196.046 391.236 193.351C387.598 190.655 384.902 187.556 383.15 184.052C381.533 180.413 380.59 176.842 380.32 173.338C380.051 169.834 379.849 167.476 379.714 166.263C379.579 165.05 379.579 162.018 379.714 157.166C379.849 152.314 380.051 146.991 380.32 141.196C380.59 135.267 380.859 129.606 381.129 124.216C381.398 118.69 381.533 114.647 381.533 112.087C381.533 110.739 381.601 109.324 381.735 107.842C381.735 106.629 381.735 105.349 381.735 104.001C381.87 102.519 381.938 101.104 381.938 99.7559L352.626 99.5537L351.413 88.0312L380.927 88.8398C380.657 87.3574 380.32 86.0098 379.916 84.7969C379.646 83.4492 379.377 82.3711 379.107 81.5625C378.703 80.6191 378.299 79.8105 377.895 79.1367C377.355 78.4629 376.749 77.7217 376.075 76.9131C375.401 76.2393 374.525 75.3633 373.447 74.2852C372.369 73.207 371.089 71.9941 369.606 70.6465ZM443.593 105.012C447.097 105.686 450.129 106.225 452.689 106.629C455.385 106.898 457.676 107.168 459.562 107.438C461.719 107.707 463.605 107.909 465.223 108.044C466.84 108.179 468.727 108.313 470.883 108.448C474.521 108.583 479.643 108.583 486.246 108.448C482.338 108.179 479.238 109.189 476.947 111.48C474.791 113.637 473.174 116.13 472.096 118.96C470.748 122.329 470.007 126.237 469.872 130.685C469.603 136.614 469.737 142.005 470.276 146.856C470.95 151.573 472.096 155.616 473.713 158.985C475.465 162.22 477.756 164.646 480.586 166.263C483.416 167.745 487.055 168.149 491.502 167.476C495.949 166.802 499.318 165.252 501.609 162.826C504.035 160.266 505.787 157.166 506.865 153.527C507.943 149.754 508.55 145.509 508.685 140.792C508.954 136.075 509.156 131.156 509.291 126.035C509.291 120.914 509.224 117.275 509.089 115.119C509.089 112.828 509.021 111.346 508.887 110.672C508.752 109.998 508.55 109.729 508.28 109.863C508.011 109.863 507.674 109.526 507.27 108.853C507 108.313 506.596 107.774 506.057 107.235C505.652 106.696 505.113 106.09 504.439 105.416C503.766 104.607 503.024 103.799 502.216 102.99C505.72 103.125 508.819 103.26 511.515 103.395C514.345 103.395 516.703 103.462 518.59 103.597C520.746 103.731 522.633 103.866 524.25 104.001C525.732 104.136 527.687 104.338 530.112 104.607C532.134 104.877 534.762 105.146 537.996 105.416C541.23 105.686 545.071 106.09 549.519 106.629C546.419 107.303 543.926 108.313 542.039 109.661C540.152 111.009 538.67 112.356 537.592 113.704C536.379 115.187 535.503 116.804 534.964 118.556C534.56 120.847 534.56 124.351 534.964 129.067C535.233 133.245 535.907 138.973 536.985 146.25C538.063 153.527 539.748 163.096 542.039 174.955L526.069 184.456L522.835 157.57C518.927 164.174 514.749 169.295 510.302 172.934C505.989 176.438 501.946 178.998 498.173 180.615C493.726 182.502 489.413 183.58 485.235 183.85C479.71 183.85 474.926 183.513 470.883 182.839C466.975 182.03 463.605 181.02 460.775 179.807C457.945 178.594 455.654 177.246 453.902 175.764C452.285 174.146 451.072 172.529 450.264 170.912C448.377 167.543 447.366 163.23 447.231 157.975C447.097 152.584 447.299 147.261 447.838 142.005C448.377 136.614 448.983 131.695 449.657 127.248C450.331 122.801 450.533 119.769 450.264 118.151C449.994 116.938 449.59 115.591 449.051 114.108C448.512 112.896 447.838 111.548 447.029 110.065C446.221 108.448 445.075 106.764 443.593 105.012ZM550.529 80.9561C556.729 81.4951 562.187 81.8994 566.903 82.1689C571.755 82.3037 575.798 82.5059 579.032 82.7754C582.806 83.0449 586.107 83.2471 588.938 83.3818C591.902 83.5166 595.676 83.5166 600.258 83.3818C604.166 83.3818 609.152 83.3145 615.217 83.1797C621.416 82.9102 628.963 82.5059 637.857 81.9668L636.24 110.065C632.332 113.974 628.828 117.612 625.729 120.981C622.764 124.351 620.136 127.248 617.845 129.674C615.284 132.504 612.993 135.064 610.972 137.355C608.95 139.781 606.659 142.679 604.099 146.048C601.808 149.013 599.045 152.651 595.811 156.964C592.576 161.142 588.87 166.061 584.692 171.721C592.104 171.316 598.169 170.912 602.886 170.508C607.603 169.969 611.309 169.497 614.004 169.093C617.238 168.554 619.597 168.149 621.079 167.88C622.427 167.341 623.977 166.195 625.729 164.443C627.211 162.961 629.03 160.737 631.187 157.772C633.343 154.808 635.769 150.765 638.464 145.644C638.464 149.821 638.464 153.393 638.464 156.357C638.599 159.188 638.666 161.546 638.666 163.433V168.891V173.54C638.666 175.022 638.666 176.842 638.666 178.998C638.801 181.154 638.936 183.58 639.07 186.275C633.814 185.602 629.03 185.13 624.718 184.86C620.405 184.456 616.699 184.187 613.6 184.052C609.961 183.917 606.659 183.917 603.694 184.052C600.729 184.321 597.023 184.591 592.576 184.86C588.803 185.13 584.153 185.399 578.628 185.669C573.103 185.938 566.566 186.275 559.02 186.68L554.572 165.252C556.998 164.174 559.896 162.085 563.265 158.985C566.634 155.886 569.868 152.719 572.968 149.484C576.472 145.711 580.178 141.601 584.086 137.153C587.859 132.706 591.565 128.259 595.204 123.812C598.304 120.038 601.538 116.13 604.907 112.087C608.411 108.044 611.443 104.473 614.004 101.373C606.727 101.643 600.729 102.182 596.013 102.99C591.296 103.664 587.59 104.338 584.895 105.012C581.66 105.82 579.234 106.764 577.617 107.842C576.135 109.055 574.315 110.874 572.159 113.3C570.272 115.321 567.981 118.084 565.286 121.588C562.591 124.957 559.491 129.337 555.987 134.728C555.987 130.28 555.92 126.305 555.785 122.801C555.65 119.162 555.516 116.13 555.381 113.704C555.111 110.874 554.909 108.381 554.774 106.225C554.505 104.068 554.168 101.71 553.764 99.1494C553.494 96.8584 553.022 94.2305 552.349 91.2656C551.81 88.166 551.203 84.7295 550.529 80.9561ZM645.135 44.7715C648.234 45.3105 651.064 45.7148 653.625 45.9844C656.186 46.1191 658.342 46.2539 660.094 46.3887C662.115 46.5234 663.867 46.5908 665.35 46.5908C667.371 46.4561 669.729 46.2539 672.425 45.9844C674.716 45.7148 677.479 45.3779 680.713 44.9736C684.082 44.5693 687.923 44.0303 692.235 43.3564C690.214 44.4346 688.529 45.5127 687.182 46.5908C685.834 47.5342 684.756 48.5449 683.947 49.623C683.004 50.8359 682.263 51.9814 681.724 53.0596C681.05 54.8115 680.309 58.4502 679.5 63.9756C678.691 68.6924 677.681 75.7002 676.468 84.999C675.39 94.2979 673.975 106.898 672.223 122.801C677.074 117.949 681.656 114.311 685.969 111.885C690.416 109.324 694.324 107.505 697.693 106.427C701.602 105.214 705.24 104.607 708.609 104.607C712.787 105.012 717.032 106.359 721.345 108.65C725.792 110.807 729.902 113.367 733.676 116.332C737.584 119.297 740.953 122.464 743.783 125.833C746.748 129.202 748.837 132.167 750.05 134.728C750.858 136.479 751.263 138.771 751.263 141.601C751.263 144.296 750.993 147.261 750.454 150.495C749.915 153.729 749.174 157.031 748.23 160.4C747.287 163.77 746.344 166.937 745.4 169.901C744.592 172.866 743.851 175.494 743.177 177.785C742.503 179.941 742.099 181.491 741.964 182.435C741.694 184.456 741.829 186.41 742.368 188.297C742.772 189.914 743.581 191.666 744.794 193.553C746.007 195.305 747.826 196.787 750.252 198C748.365 197.73 746.344 197.528 744.188 197.394C742.166 197.124 740.212 196.922 738.325 196.787C736.169 196.652 734.013 196.585 731.856 196.585H724.579C722.288 196.585 719.66 196.652 716.695 196.787C713.73 196.787 710.496 196.854 706.992 196.989C708.879 196.315 710.496 195.439 711.844 194.361C713.191 193.148 714.337 192.003 715.28 190.925C716.358 189.712 717.302 188.432 718.11 187.084C718.649 186.006 719.323 183.984 720.132 181.02C720.94 177.92 721.682 174.416 722.355 170.508C723.029 166.465 723.501 162.22 723.771 157.772C724.175 153.325 724.242 149.08 723.973 145.037C723.838 140.859 723.231 137.153 722.153 133.919C721.21 130.685 719.728 128.326 717.706 126.844C711.642 122.262 706.116 120.038 701.13 120.173C696.278 120.173 691.629 122.127 687.182 126.035C685.564 127.518 684.015 129 682.532 130.482C681.185 131.83 679.702 133.447 678.085 135.334C676.468 137.086 674.985 138.905 673.638 140.792C673.638 142.813 673.705 145.037 673.84 147.463C673.975 149.889 674.109 152.247 674.244 154.538C674.379 157.099 674.581 159.659 674.851 162.22C675.12 166.128 675.524 169.969 676.063 173.742C676.468 176.977 677.007 180.548 677.681 184.456C678.354 188.229 679.23 191.666 680.309 194.766C678.557 194.496 676.737 194.429 674.851 194.563C672.964 194.563 671.145 194.563 669.393 194.563C667.371 194.698 665.417 194.766 663.53 194.766C661.778 194.9 659.959 195.103 658.072 195.372C656.455 195.642 654.703 195.911 652.816 196.181C650.93 196.315 649.11 196.585 647.358 196.989C648.976 193.89 650.323 190.857 651.401 187.893C652.479 184.793 653.355 182.098 654.029 179.807C654.838 177.111 655.512 174.483 656.051 171.923C656.455 169.901 656.725 166.061 656.859 160.4C657.129 154.605 657.331 148.002 657.466 140.59C657.601 133.043 657.668 125.092 657.668 116.736C657.668 108.381 657.601 100.43 657.466 92.8828C657.331 85.3359 657.062 78.7324 656.657 73.0723C656.388 67.4121 656.051 63.5039 655.646 61.3477C655.107 59.1914 654.366 57.0352 653.423 54.8789C652.614 52.9922 651.536 51.1729 650.188 49.4209C648.841 47.5342 647.156 45.9844 645.135 44.7715ZM813.929 165.454C817.702 165.454 821.206 165.05 824.44 164.241C827.136 163.567 829.696 162.489 832.122 161.007C834.683 159.39 836.367 157.031 837.176 153.932C839.871 154.471 842.162 154.942 844.049 155.347C845.936 155.616 847.553 155.886 848.9 156.155C850.383 156.56 851.663 156.829 852.741 156.964C853.819 157.233 855.1 157.503 856.582 157.772C857.93 158.042 859.547 158.379 861.434 158.783C863.455 159.053 865.813 159.457 868.509 159.996C866.487 159.727 864.398 159.929 862.242 160.603C860.221 161.276 858.267 162.018 856.38 162.826C854.224 163.77 852.202 164.915 850.315 166.263C849.103 167.071 847.688 168.284 846.07 169.901C844.588 171.519 842.432 173.068 839.602 174.551C836.771 176.033 832.998 177.313 828.281 178.392C823.699 179.335 817.77 179.672 810.492 179.402C801.732 179.133 794.388 177.583 788.458 174.753C782.528 171.788 777.744 168.217 774.105 164.039C770.467 159.727 767.839 155.077 766.222 150.091C764.604 145.104 763.729 140.455 763.594 136.143C763.459 131.83 764.739 127.315 767.435 122.599C770.13 117.882 773.903 113.569 778.755 109.661C783.741 105.753 789.738 102.586 796.746 100.16C803.754 97.5996 811.436 96.3193 819.791 96.3193C824.643 96.3193 829.09 96.9258 833.133 98.1387C837.311 99.2168 841.084 100.699 844.453 102.586C847.957 104.473 850.989 106.629 853.55 109.055C856.11 111.346 858.267 113.704 860.019 116.13C861.771 118.69 863.253 121.386 864.466 124.216C865.544 126.642 866.42 129.404 867.094 132.504C867.768 135.604 867.97 138.771 867.7 142.005C857.458 142.274 849.17 142.477 842.836 142.611C836.637 142.746 831.785 142.813 828.281 142.813H819.185H812.312C809.886 142.813 806.719 142.881 802.811 143.016C798.902 143.15 794.118 143.353 788.458 143.622C789.132 149.013 790.816 153.19 793.512 156.155C796.342 158.985 799.307 161.142 802.406 162.624C805.91 164.241 809.751 165.185 813.929 165.454ZM795.735 129.067C800.048 129.337 803.619 129.539 806.449 129.674C809.414 129.809 811.84 129.943 813.727 130.078C815.748 130.213 817.365 130.28 818.578 130.28H823.632C827.001 130.28 833.268 130.078 842.432 129.674C842.027 123.744 840.747 119.229 838.591 116.13C836.569 113.03 834.413 110.739 832.122 109.257C829.427 107.64 826.462 106.696 823.228 106.427C814.468 106.562 807.932 108.381 803.619 111.885C799.441 115.389 796.813 121.116 795.735 129.067ZM862.444 86.6162C864.735 87.0205 867.094 87.3574 869.52 87.627C871.811 87.7617 873.899 87.8965 875.786 88.0312C877.942 88.166 880.031 88.2334 882.053 88.2334C884.074 88.2334 886.365 88.166 888.926 88.0312C891.082 87.8965 893.643 87.6943 896.607 87.4248C899.707 87.1553 903.076 86.751 906.715 86.2119C904.559 87.4248 902.874 88.7051 901.661 90.0527C900.448 91.4004 899.505 92.6133 898.831 93.6914C898.022 95.0391 897.483 96.252 897.214 97.3301C896.944 98.4082 897.012 100.632 897.416 104.001C897.82 107.37 898.359 111.278 899.033 115.726C899.842 120.173 900.718 124.822 901.661 129.674C902.604 134.525 903.548 138.973 904.491 143.016C905.569 147.059 906.513 150.428 907.321 153.123C908.265 155.818 909.006 157.099 909.545 156.964C910.084 156.964 910.893 155.616 911.971 152.921C913.184 150.226 914.531 146.924 916.014 143.016C917.496 138.973 919.046 134.593 920.663 129.876C922.28 125.024 923.695 120.51 924.908 116.332C926.121 112.154 927.064 108.65 927.738 105.82C928.547 102.855 928.884 101.104 928.749 100.564C928.345 100.025 927.873 99.2842 927.334 98.3408C926.391 96.8584 924.302 94.2979 921.067 90.6592C924.976 90.9287 928.345 91.1982 931.175 91.4678C934.005 91.6025 936.296 91.8047 938.048 92.0742C940.069 92.3438 941.687 92.5459 942.899 92.6807C944.112 92.8154 945.864 92.8154 948.155 92.6807C950.042 92.6807 952.535 92.6133 955.635 92.4785C958.869 92.209 962.845 91.8047 967.562 91.2656C964.058 93.2871 961.16 95.1064 958.869 96.7236C956.713 98.2061 955.028 99.4863 953.815 100.564C952.333 101.912 951.255 103.058 950.581 104.001C949.638 105.753 947.953 109.931 945.527 116.534C944.449 119.364 943.102 122.868 941.484 127.046C940.002 131.224 938.183 136.277 936.026 142.207C934.005 148.002 931.579 154.808 928.749 162.624C925.919 170.44 922.752 179.402 919.248 189.51L899.64 191.531C897.079 183.041 894.99 175.966 893.373 170.306C891.891 164.511 890.678 159.861 889.734 156.357C888.656 152.314 887.848 149.147 887.309 146.856C886.635 144.296 885.826 140.59 884.883 135.738C883.939 130.752 882.996 125.698 882.053 120.577C881.109 115.456 880.166 110.874 879.223 106.831C878.279 102.653 877.538 100.093 876.999 99.1494C876.46 98.4756 875.517 97.5322 874.169 96.3193C873.091 95.2412 871.608 93.9609 869.722 92.4785C867.835 90.8613 865.409 88.9072 862.444 86.6162Z" fill="#D12727"/>
</svg>
